<svg width="307" height="285" viewBox="0 0 307 285" fill="none" xmlns="http://www.w3.org/2000/svg">
<g clip-path="url(#clip0_1031_219)">
<path d="M61.7828 277.385C112.16 287.538 193.84 287.538 244.217 277.385C294.594 267.232 294.594 250.768 244.217 240.615C193.84 230.462 112.16 230.462 61.7828 240.615C11.4057 250.768 11.4057 267.232 61.7828 277.385Z" fill="#E7F4FC"/>
<path d="M238.707 13.4905C236.64 1.27411 217.786 -4.24051 218.157 3.73297L131.726 4.23855C125.74 4.27418 120.885 9.64626 120.88 16.2478L120.702 243.064C120.697 249.902 125.635 255.492 131.735 255.543L219.967 256.298C220.514 257.445 221.54 258.49 223.154 259.361C233.272 259.577 238.125 254.59 239.899 248.953C240.477 247.441 240.79 245.768 240.776 244.004C240.424 241.053 239.348 16.3569 238.707 13.4905Z" fill="#828D9E"/>
<path d="M222.212 259.396L120.936 258.746C114.617 258.706 109.503 252.964 109.517 245.928L109.896 12.6686C109.907 5.88446 114.939 0.374298 121.137 0.354253L220.447 0.0313046C226.694 0.0112595 231.801 5.51474 231.855 12.3278L233.654 246.666C233.705 253.737 228.583 259.439 222.212 259.396Z" fill="#828D9E"/>
<path d="M223.61 257.702C223.19 257.757 222.759 257.784 222.331 257.782L121.086 257.018C115.655 256.978 111.216 251.944 111.227 245.804L111.577 12.8002C111.586 6.87804 115.954 2.04496 121.282 2.02046L220.585 1.58838C220.741 1.58838 220.898 1.59061 221.052 1.59729C223.552 1.7131 225.886 2.84899 227.632 4.79336C229.415 6.78005 230.409 9.41263 230.429 12.2123L232.205 246.788C232.243 252.345 228.563 257.038 223.61 257.702Z" fill="black"/>
<path d="M226.942 13.3901L228.652 247.149L114.595 246.467L114.885 13.3901H226.942Z" fill="#9BBFD5"/>
<path d="M171.745 48.4359C171.732 48.4225 171.716 48.4069 171.705 48.3936C166.122 54.3603 157.214 59.2513 147.683 61.3337C147.681 61.9685 147.665 65.4875 147.592 81.7106C147.496 103.35 168.134 113.925 171.339 115.547C161.924 77.5235 169.299 54.5251 171.745 48.4359Z" fill="#F5F9FF"/>
<path d="M171.745 48.436C169.299 54.5275 161.924 77.5236 171.337 115.547C174.441 114.121 195.34 103.562 195.439 81.9224C195.512 65.7015 195.528 62.1803 195.53 61.5455C186.039 59.3829 177.276 54.4317 171.745 48.436Z" fill="#E3EEFF"/>
<path d="M171.33 115.994L171.156 115.905C164.908 112.74 160.522 108.999 157.942 106.417C150.766 99.2366 147.148 90.9224 147.188 81.7061L147.279 61.0063L147.596 60.9372C156.897 58.9038 165.801 54.1108 171.41 48.1151L171.707 47.7988L172.044 48.1596C177.613 54.1977 186.428 59.0552 195.622 61.1511L195.936 61.2223L195.934 61.5453C195.932 62.0909 195.918 64.7725 195.869 75.8396L195.843 81.9222C195.742 104.139 173.986 114.772 171.506 115.91L171.33 115.994ZM148.085 61.6566L147.996 81.7106C147.909 100.969 164.151 111.42 171.348 115.097C174.486 113.622 194.941 103.183 195.037 81.9199L195.064 75.8374C195.106 66.169 195.122 62.9017 195.126 61.866C186.03 59.7301 177.327 54.9393 171.703 48.9815C166.038 54.877 157.263 59.5875 148.085 61.6566Z" fill="white"/>
<path d="M171.37 111.684L171.002 111.493C168.756 110.328 164.368 107.753 160.192 103.606C153.784 97.2431 150.554 89.891 150.589 81.755L150.67 63.8392L151.272 63.6833C158.984 61.6988 166.02 58.0528 171.084 53.418L171.638 52.9102L172.225 53.4625C177.243 58.1241 184.229 61.8168 191.898 63.8637L192.501 64.024L192.421 81.9398C192.385 90.0759 189.088 97.399 182.624 103.707C178.537 107.693 174.245 110.199 172.049 111.339L171.993 111.368C171.908 111.413 171.821 111.457 171.743 111.497L171.37 111.684ZM152.277 65.0842L152.203 81.7594C152.17 89.4478 155.239 96.4146 161.33 102.462C165.138 106.243 169.127 108.667 171.377 109.867C173.515 108.751 177.6 106.346 181.493 102.551C187.637 96.5571 190.769 89.6193 190.803 81.9309L190.878 65.2557C183.446 63.1821 176.656 59.5985 171.625 55.0973C166.553 59.554 159.734 63.0752 152.277 65.0842Z" fill="#6A99B7"/>
<path d="M162.004 78.7729V92.976C162.004 94.5573 181.359 94.5573 181.359 92.976V78.7729H162.004ZM172.66 86.3166V90.3434C172.66 90.8802 172.223 91.3256 171.685 91.3256C171.138 91.3256 170.7 90.8802 170.7 90.3434V86.3077C169.872 85.9357 169.29 85.0983 169.29 84.1361C169.29 82.8176 170.363 81.7552 171.685 81.7552C173.006 81.7552 174.071 82.8176 174.071 84.1361C174.071 85.1072 173.497 85.9424 172.66 86.3166Z" fill="#6A99B7"/>
<path d="M179.662 77.7618H177.703V76.8064C177.703 73.4922 174.999 70.7973 171.68 70.7973C168.359 70.7973 165.658 73.4945 165.658 76.8064V77.7618H163.698V76.8064C163.698 72.4143 167.279 68.8418 171.68 68.8418C176.082 68.8418 179.662 72.4143 179.662 76.8064V77.7618Z" fill="#6A99B7"/>
<path d="M198.733 126.81H142.79V137.843H198.733V126.81Z" fill="white"/>
<path d="M153.973 135.115C155.307 135.115 156.388 134.036 156.388 132.705C156.388 131.374 155.307 130.295 153.973 130.295C152.639 130.295 151.558 131.374 151.558 132.705C151.558 134.036 152.639 135.115 153.973 135.115Z" fill="#6A99B7"/>
<path d="M162.254 135.115C163.588 135.115 164.669 134.036 164.669 132.705C164.669 131.374 163.588 130.295 162.254 130.295C160.92 130.295 159.839 131.374 159.839 132.705C159.839 134.036 160.92 135.115 162.254 135.115Z" fill="#6A99B7"/>
<path d="M170.533 135.115C171.867 135.115 172.948 134.036 172.948 132.705C172.948 131.374 171.867 130.295 170.533 130.295C169.199 130.295 168.118 131.374 168.118 132.705C168.118 134.036 169.199 135.115 170.533 135.115Z" fill="#6A99B7"/>
<path d="M178.812 135.115C180.146 135.115 181.227 134.036 181.227 132.705C181.227 131.374 180.146 130.295 178.812 130.295C177.478 130.295 176.397 131.374 176.397 132.705C176.397 134.036 177.478 135.115 178.812 135.115Z" fill="#6A99B7"/>
<path d="M187.093 135.115C188.427 135.115 189.508 134.036 189.508 132.705C189.508 131.374 188.427 130.295 187.093 130.295C185.759 130.295 184.678 131.374 184.678 132.705C184.678 134.036 185.759 135.115 187.093 135.115Z" fill="#6A99B7"/>
<path d="M178.021 153.351H163.049C160.926 153.351 159.205 151.634 159.205 149.516C159.205 147.398 160.926 145.681 163.049 145.681H178.021C180.144 145.681 181.865 147.398 181.865 149.516C181.865 151.634 180.144 153.351 178.021 153.351Z" fill="#6A99B7"/>
<path d="M194.633 166.617H148.493V170.069H194.633V166.617Z" fill="#80D1FF"/>
<path d="M210.141 174.29H133.628V177.742H210.141V174.29Z" fill="#80D1FF"/>
<path d="M206.936 181.962H136.831V185.415H206.936V181.962Z" fill="#80D1FF"/>
<path d="M80.1561 169.445C74.6183 175.038 69.7836 180.543 65.1364 190.78C63.8485 187.446 64.1655 188.178 61.0606 180.846C59.6321 177.401 50.4002 179.35 50.1681 182.381C50.1681 182.381 48.5097 203.497 58.2839 211.814C68.0582 220.13 95.611 185.405 95.611 185.405C104.412 173.41 89.6268 161.946 80.1561 169.445Z" fill="#0C3469"/>
<path d="M151.083 243.948C140.695 264.173 64.9155 256.973 51.8735 245.964C42.2354 231.845 77.1518 224.945 77.9263 224.923C95.0887 224.458 118.735 225.979 127.449 225.979C147.712 229.088 153.364 236.248 151.083 243.948Z" fill="#254E8B"/>
<path d="M77.7633 235.46C91.8589 238.794 104.365 239.885 119.738 237.536C119.738 237.536 96.1913 247.921 96.0641 248.304C95.9369 248.687 77.7633 235.46 77.7633 235.46Z" fill="#051733"/>
<path d="M149.275 246.293C134.097 263.062 69.3194 261.452 81.7789 246.202C93.0866 244.792 124.157 237.253 126.896 235.774C136.445 228.05 155.451 237.217 149.275 246.293Z" fill="#254E8B"/>
<path d="M139.556 258.278C138.804 254.904 134.907 252.755 130.742 251.4C128.717 253.763 125.958 258.425 125.782 265.387C135.023 267.459 140.846 264.073 139.556 258.278Z" fill="#73CCFF"/>
<path d="M119.017 249.892C119.017 249.892 115.144 249.233 114.01 253.852C113.626 255.42 112.499 258.565 116.278 261.017C120.048 263.089 122.655 264.688 125.782 265.389C125.958 258.427 128.715 253.766 130.742 251.402C125.331 249.641 119.017 249.892 119.017 249.892Z" fill="#9BBFD5"/>
<path d="M117.802 250.425C125.195 252.193 121.396 261.287 117.59 260.748C121.738 261.334 44.1862 261.343 51.7507 237.939C51.7797 237.939 51.7797 237.939 51.7797 237.939C54.6703 233.01 63.708 228.749 71.027 231.965C87.9796 240.943 103.981 247.171 117.802 250.425Z" fill="#254E8B"/>
<path d="M120.572 260.244C120.572 260.244 113.977 259.73 116.264 254.44C118.55 249.151 123.191 252.253 123.191 252.253C123.191 252.253 125.666 257.652 120.572 260.244Z" fill="#9BBFD5"/>
<path d="M120.889 260.699C120.729 260.699 120.595 260.572 120.588 260.409C120.421 255.579 123.396 252.443 123.523 252.313C123.639 252.193 123.829 252.191 123.949 252.304C124.07 252.42 124.072 252.61 123.958 252.73C123.929 252.761 121.034 255.821 121.191 260.389C121.197 260.556 121.066 260.694 120.9 260.701C120.896 260.699 120.894 260.699 120.889 260.699Z" fill="white"/>
<path d="M122.753 261.409C122.592 261.409 122.458 261.282 122.452 261.12C122.284 256.289 125.26 253.153 125.387 253.024C125.503 252.904 125.693 252.901 125.813 253.015C125.934 253.131 125.936 253.32 125.822 253.44C125.793 253.472 122.898 256.532 123.054 261.1C123.061 261.267 122.929 261.405 122.764 261.412C122.762 261.409 122.758 261.409 122.753 261.409Z" fill="white"/>
<path d="M124.729 261.901C124.568 261.901 124.434 261.774 124.427 261.612C124.26 256.781 127.235 253.645 127.362 253.514C127.478 253.393 127.668 253.391 127.789 253.505C127.909 253.62 127.911 253.81 127.798 253.93C127.769 253.961 124.874 257.021 125.03 261.59C125.037 261.757 124.905 261.895 124.74 261.901C124.735 261.901 124.731 261.901 124.729 261.901Z" fill="white"/>
<path d="M118.584 260.447C117.003 261.32 77.0379 263.176 54.7908 248.877C47.5499 244.224 51.3601 237.547 51.3601 237.547C51.3601 237.547 56.543 256.901 118.584 260.447Z" fill="#051733"/>
<path d="M114.122 250.244C114.079 250.244 114.037 250.238 113.992 250.226C85.185 241.712 71.9153 232.894 71.7836 232.807C71.5761 232.667 71.5225 232.389 71.6631 232.181C71.8015 231.974 72.0827 231.921 72.2903 232.061C72.4198 232.148 85.5935 240.894 114.249 249.364C114.488 249.436 114.624 249.685 114.555 249.926C114.497 250.117 114.316 250.244 114.122 250.244Z" fill="#051733"/>
<path d="M95.8766 243.805C95.6624 243.805 95.4704 243.652 95.4325 243.433C95.3878 243.188 95.553 242.955 95.7985 242.91C95.9816 242.877 114.144 239.616 121.175 236.609C121.405 236.511 121.671 236.618 121.769 236.845C121.867 237.075 121.76 237.34 121.532 237.438C114.405 240.487 96.707 243.663 95.957 243.796C95.928 243.803 95.9012 243.805 95.8766 243.805Z" fill="#051733"/>
<path d="M128.53 225.959C129.161 230.794 94.6668 231.948 77.0244 224.938C74.3861 214.023 65.277 164.344 92.4838 164.496C121.858 164.659 125.737 212.782 128.53 225.959Z" fill="white"/>
<path d="M51.1993 182.183L50.7931 176.033L57.2728 175.06L59.7214 180.59C59.9982 182.225 51.4761 183.82 51.1993 182.183Z" fill="#F7A594"/>
<path d="M57.5697 176.015L59.1388 166.048C59.1388 166.048 56.8554 165.407 56.6411 168.113C56.4268 170.819 52.0029 172.527 53.1457 175.162C54.2863 177.795 57.5697 176.015 57.5697 176.015Z" fill="#F7A594"/>
<path d="M51.0052 176.3C51.0052 176.3 46.146 168.895 45.7263 164.696C45.6817 163.157 46.3692 162.703 46.3692 162.703L57.4291 173.525C57.4291 173.525 58.1434 175.732 57.2863 176.659C56.4269 177.581 53.2172 178.935 51.0052 176.3Z" fill="#F7A594"/>
<path d="M57.8397 173.674C57.8397 173.674 57.9513 175.427 56.9447 175.066C53.9894 174.202 53.8153 169.873 53.8153 169.873L57.8397 173.674Z" fill="#CC7767"/>
<path d="M62.1767 175.857L41.6059 156.79C41.6059 156.79 40.8916 156.734 40.4296 157.051L62.1254 176.904C62.2727 176.427 62.1767 175.857 62.1767 175.857Z" fill="#404040"/>
<path d="M40.4273 157.05C40.1148 157.266 39.9162 157.647 40.1461 158.355C40.7197 160.102 58.8799 176.797 60.7169 177.421C61.6142 177.726 61.978 177.358 62.1209 176.904L40.4273 157.05Z" fill="black"/>
<path d="M45.7664 163.663C45.7664 163.663 45.9763 161.948 49.0722 164.053C52.8332 166.607 55.3599 171.164 54.5117 172.331C53.4292 173.821 44.9473 167.08 45.7664 163.663Z" fill="#F7A594"/>
<path d="M86.9082 165.318C67.3976 169.587 72.6564 216.085 74.0246 226.161C77.7142 227.627 89.6291 230.524 94.3187 231.317C84.9395 209.179 80.0133 167.432 86.9082 165.318Z" fill="#0C3469"/>
<path d="M98.3565 165.982C96.1891 176.53 84.5623 176.26 84.4105 170.338C84.3792 170.187 84.3792 170.006 84.3792 169.857L83.4462 157.053L83.3257 155.491L84.3502 155.28L93.5955 153.447L93.9281 153.387L94.1981 154.197L95.3722 157.534L98.3565 165.982Z" fill="#F7A594"/>
<path d="M98.0863 165.178C94.4101 173.799 99.2693 218.816 102.635 232.251C111.735 235.32 125.465 230.832 129.132 226.226C126.53 213.941 122.367 171.02 98.0863 165.178Z" fill="#0C3469"/>
<path d="M97.1712 180.837C95.7539 188.588 98.4547 202.031 100.555 209.02C106.131 213.114 114.793 211 114.793 204.711C115.032 199.031 114.535 192.659 113.164 185.47C111.816 169.276 97.8721 169.425 97.1712 180.837Z" fill="#0C3469"/>
<path d="M88.629 191.274C82.8859 189.207 79.9284 197.437 84.1091 200.292C94.0507 206.985 109.492 215.987 112.238 210.252C116.255 201.862 101.713 195.41 88.629 191.274Z" fill="#0C3469"/>
<path d="M83.3345 197.746L79.0824 195.504C76.4106 193.437 81.1158 189.187 83.0243 189.871L86.33 191.942C88.0063 193.526 85.6269 197.571 83.3345 197.746Z" fill="#F7A594"/>
<path d="M79.4909 195.597C76.0111 194.858 77.2142 191.352 77.9976 187.345C75.1964 175.329 90.5174 195.918 79.4909 195.597Z" fill="#F7A594"/>
<path d="M81.0199 185.806C81.0199 185.806 79.8838 184.04 77.3839 180.096C76.2567 180.307 75.654 182.283 77.1696 184.011C78.4999 185.53 80.4262 186.559 81.0199 185.806Z" fill="#F7A594"/>
<path d="M77.6004 184.753C75.087 183.332 73.2969 187.468 73.9576 190.695C74.9665 195.635 78.6517 193.196 79.7521 191.878C81.7676 189.465 80.6806 186.492 77.6004 184.753Z" fill="#F7A594"/>
<path d="M97.4926 194.724C97.3475 194.724 97.2203 194.619 97.1957 194.472C97.1779 194.363 95.3967 183.409 97.5975 176.008C97.6444 175.85 97.8118 175.759 97.9725 175.806C98.131 175.852 98.2225 176.02 98.1756 176.18C96.0127 183.447 97.7716 194.267 97.7894 194.376C97.8162 194.541 97.7046 194.695 97.5417 194.722C97.5261 194.722 97.5082 194.724 97.4926 194.724Z" fill="#003331"/>
<path d="M107.966 211.637C103.004 211.637 97.1221 208.526 96.7783 208.341C96.631 208.263 96.5774 208.081 96.6556 207.934C96.7337 207.787 96.9167 207.733 97.064 207.811C97.1779 207.871 108.497 213.86 112.637 209.33C116.269 205.357 113.564 188.142 113.537 187.971C113.51 187.806 113.622 187.652 113.787 187.628C113.952 187.601 114.106 187.713 114.133 187.877C114.249 188.597 116.909 205.55 113.084 209.738C111.805 211.134 109.959 211.637 107.966 211.637Z" fill="#003331"/>
<path d="M103.941 197.325C103.901 197.325 103.859 197.316 103.818 197.298C96.5641 194.082 87.484 191.167 87.3925 191.138C87.234 191.087 87.147 190.917 87.1983 190.759C87.2497 190.601 87.4193 190.514 87.5778 190.565C87.6693 190.594 96.7806 193.519 104.064 196.748C104.216 196.815 104.285 196.993 104.216 197.145C104.167 197.261 104.055 197.325 103.941 197.325Z" fill="white"/>
<path d="M84.3769 170.06C84.1068 167.231 82.5488 156.578 84.3501 155.282L93.5954 153.449C95.7181 165.075 87.8188 170.882 84.3769 170.06Z" fill="#D97661"/>
<path d="M97.0395 151.373C96.5908 160.881 88.1067 168.258 81.7944 167.911C75.4821 167.561 67.7256 159.525 68.1742 150.017C68.6229 140.509 75.4486 133.106 83.4193 133.48C91.3901 133.856 97.4881 141.868 97.0395 151.373Z" fill="#F7A594"/>
<path d="M88.4594 134.825C80.4797 128.291 75.0803 132.85 70.0961 137.774C66.5984 141.231 64.1163 143.719 60.2816 143.83C66.3975 153.835 81.6203 149.603 87.3121 141.032C87.1201 146.287 92.7271 151.347 97.0417 151.374C99.1309 145.759 96.5596 133.571 88.4594 134.825Z" fill="#0E0E0E"/>
<path d="M96.3995 154.945C98.1525 154.467 99.1856 152.662 98.7072 150.913C98.2288 149.164 96.4199 148.133 94.667 148.611C92.9141 149.088 91.8809 150.893 92.3593 152.642C92.8378 154.391 94.6466 155.422 96.3995 154.945Z" fill="#F7A594"/>
<path d="M77.8972 161.002C77.6517 161.002 77.424 160.948 77.2343 160.815C76.4084 160.233 77.2187 155.356 77.4865 153.875C77.5066 153.77 77.607 153.701 77.712 153.719C77.8169 153.739 77.8883 153.839 77.8682 153.944C77.3392 156.863 77.0312 160.198 77.4575 160.496C78.0155 160.888 79.3302 160.191 79.79 159.89C79.8793 159.832 79.9998 159.857 80.0601 159.946C80.1204 160.035 80.0936 160.155 80.0043 160.215C79.857 160.313 78.7789 161.002 77.8972 161.002Z" fill="#BD4A31"/>
<path d="M83.7274 152.763C83.8948 153.523 84.3368 154.071 84.714 153.988C85.0912 153.906 85.2609 153.222 85.0935 152.463C84.926 151.703 84.4841 151.155 84.1069 151.238C83.7274 151.32 83.5578 152.004 83.7274 152.763Z" fill="#0E0E0E"/>
<path d="M71.6563 155.732C71.8125 156.44 72.2255 156.953 72.5781 156.875C72.9308 156.797 73.0893 156.16 72.9308 155.449C72.7745 154.741 72.3616 154.229 72.0089 154.307C71.6585 154.385 71.5 155.024 71.6563 155.732Z" fill="#0E0E0E"/>
<path d="M83.5086 162.953C83.2006 162.953 82.9997 162.929 82.9751 162.924C82.868 162.911 82.7943 162.813 82.8077 162.706C82.8211 162.599 82.9193 162.525 83.0265 162.539C83.0466 162.541 85.0197 162.786 86.4282 161.597C87.3299 160.835 87.8143 159.652 87.8701 158.078C87.8745 157.971 87.9594 157.879 88.071 157.891C88.1781 157.895 88.2629 157.984 88.2585 158.091C88.1982 159.781 87.667 161.06 86.6759 161.895C85.5911 162.813 84.243 162.953 83.5086 162.953Z" fill="#803221"/>
<path d="M82.3167 150.799C82.3144 150.799 82.31 150.799 82.3077 150.799C82.2006 150.794 82.118 150.703 82.1225 150.596C82.1582 149.819 82.685 149.184 83.4974 148.944C84.3233 148.696 85.1536 148.944 85.609 149.574C85.6715 149.661 85.6536 149.783 85.5643 149.846C85.4773 149.908 85.3545 149.89 85.292 149.801C84.9349 149.307 84.272 149.115 83.6068 149.316C83.0979 149.467 82.5443 149.888 82.5109 150.614C82.5064 150.717 82.4194 150.799 82.3167 150.799Z" fill="#803221"/>
<path d="M70.7389 153.567C70.7322 153.567 70.7278 153.567 70.7211 153.567C70.6139 153.558 70.5336 153.462 70.5447 153.356C70.6474 152.189 71.3416 151.692 71.9554 151.616C72.7009 151.523 73.4107 152.001 73.683 152.777C73.7188 152.879 73.6652 152.988 73.5625 153.024C73.4598 153.059 73.3505 153.006 73.3147 152.903C73.1027 152.302 72.567 151.93 72.0023 152.001C71.5402 152.059 71.0157 152.454 70.9331 153.391C70.9242 153.491 70.8394 153.567 70.7389 153.567Z" fill="#803221"/>
<path d="M45.8826 132.856H4.11818C1.8437 132.856 0 131.017 0 128.749V112.201C0 109.931 1.8437 108.092 4.11818 108.092H45.8826C48.1571 108.092 50.0008 109.931 50.0008 112.201V128.749C49.9985 131.017 48.1571 132.856 45.8826 132.856Z" fill="#9BBFD5"/>
<path d="M41.7466 128.856V140.028L30.334 128.64L41.7466 128.856Z" fill="#9BBFD5"/>
<path d="M11.1036 122.241C11.9543 121.392 11.9543 120.016 11.1036 119.167C10.2528 118.318 8.87347 118.318 8.02272 119.167C7.17197 120.016 7.17197 121.392 8.02272 122.241C8.87348 123.09 10.2528 123.09 11.1036 122.241Z" fill="white"/>
<path d="M18.9933 121.202C19.2686 120.034 18.5422 118.863 17.371 118.589C16.1997 118.314 15.027 119.039 14.7517 120.208C14.4765 121.376 15.2028 122.546 16.3741 122.821C17.5453 123.096 18.718 122.371 18.9933 121.202Z" fill="white"/>
<path d="M26.2987 121.202C26.574 120.033 25.8477 118.863 24.6764 118.588C23.5051 118.314 22.3324 119.038 22.0572 120.207C21.7819 121.376 22.5082 122.546 23.6795 122.821C24.8508 123.095 26.0234 122.371 26.2987 121.202Z" fill="white"/>
<path d="M33.6326 121.054C33.8253 119.869 33.0188 118.753 31.8312 118.56C30.6436 118.368 29.5245 119.173 29.3318 120.358C29.139 121.543 29.9456 122.659 31.1332 122.852C32.3208 123.044 33.4399 122.239 33.6326 121.054Z" fill="white"/>
<path d="M40.3255 122.241C41.1762 121.392 41.1762 120.015 40.3255 119.167C39.4747 118.318 38.0954 118.318 37.2446 119.167C36.3939 120.015 36.3939 121.392 37.2446 122.241C38.0954 123.09 39.4747 123.09 40.3255 122.241Z" fill="white"/>
<path d="M91.8366 98.5749H65.3397C62.6455 98.5749 60.4603 96.3944 60.4603 93.7062V74.1021C60.4603 71.4139 62.6455 69.2334 65.3397 69.2334H91.8366C94.5308 69.2334 96.716 71.4139 96.716 74.1021V93.7062C96.716 96.3967 94.5308 98.5749 91.8366 98.5749Z" fill="#9BBFD5"/>
<path d="M73.576 97.6616L77.7299 104.936L82.3035 97.6616H73.576Z" fill="#9BBFD5"/>
<path d="M77.8059 83.2182L70.5695 77.7749H85.0065L77.8059 83.2182Z" fill="#6A99B7"/>
<path d="M85.6114 79.1782V88.6239H69.9623V79.1782L77.8058 85.047L85.6114 79.1782Z" fill="#6A99B7"/>
</g>
<defs>
<clipPath id="clip0_1031_219">
<rect width="307" height="285" fill="white"/>
</clipPath>
</defs>
</svg>
