<svg width="258" height="284" viewBox="0 0 258 284" fill="none" xmlns="http://www.w3.org/2000/svg">
<path d="M37.7828 262.658C88.1598 291.114 169.84 291.114 220.217 262.658C270.594 234.201 270.594 188.06 220.217 159.603C169.84 131.147 88.1598 131.147 37.7828 159.603C-12.5943 188.06 -12.5943 234.201 37.7828 262.658Z" fill="#E7F4FC"/>
<path d="M212.966 241.627C223.974 241.627 232.898 237.379 232.898 232.139C232.898 226.899 223.974 222.651 212.966 222.651C201.958 222.651 193.034 226.899 193.034 232.139C193.034 237.379 201.958 241.627 212.966 241.627Z" fill="#D2EBFB"/>
<path d="M162.893 186.266C162.893 186.266 159.102 180.14 158.738 173.467C158.374 166.795 159.839 164.031 161.852 163.234C163.864 162.437 164.011 164.889 165.052 166.336C166.093 167.783 168.192 166.96 168.964 162.445C169.736 157.931 172.59 150.288 178.479 148.832C184.985 147.221 181.498 154.846 179.858 157.818C178.228 160.79 176.953 164.846 178.028 165.946C179.104 167.047 180.778 165.01 182.374 166.899C184.308 169.178 178.297 177.375 174.845 179.368L162.893 186.266Z" fill="#9BBFD5"/>
<path d="M168.088 183.684C168.079 183.684 168.071 183.684 168.062 183.684C167.819 183.675 167.637 183.467 167.654 183.224C168.609 165.478 177.274 153.191 177.369 153.07C177.508 152.87 177.777 152.827 177.976 152.966C178.167 153.104 178.219 153.373 178.08 153.572C177.994 153.694 169.476 165.79 168.531 183.268C168.513 183.502 168.322 183.684 168.088 183.684Z" fill="white"/>
<path d="M168.583 178.571C168.513 178.571 168.435 178.554 168.374 178.519C165.946 177.176 164.601 173.19 164.541 173.026C164.463 172.8 164.584 172.558 164.818 172.48C165.044 172.402 165.295 172.532 165.365 172.757C165.373 172.792 166.657 176.587 168.791 177.765C168.999 177.878 169.077 178.147 168.964 178.355C168.886 178.485 168.739 178.571 168.583 178.571Z" fill="white"/>
<path d="M169.008 175.946C168.817 175.946 168.635 175.816 168.591 175.616C168.53 175.382 168.669 175.148 168.903 175.088C175.166 173.502 177.334 170.227 177.352 170.192C177.482 169.993 177.751 169.932 177.95 170.062C178.15 170.192 178.21 170.461 178.08 170.66C177.985 170.807 175.738 174.256 169.112 175.928C169.077 175.937 169.042 175.946 169.008 175.946Z" fill="white"/>
<path d="M68.5398 172.792C68.5398 172.792 60.2217 170.764 59.788 155.21C59.3196 138.417 61.8264 118.825 52.0164 117.231C42.2064 115.636 36.6986 127.655 36.8287 141.614C36.9414 153.876 41.8855 180.478 68.5398 185.694V172.792Z" fill="#0C3469"/>
<path opacity="0.2" d="M68.5398 172.792C68.5398 172.792 60.2217 170.764 59.788 155.21C59.3196 138.417 61.8264 118.825 52.0164 117.231C42.2064 115.636 36.6986 127.655 36.8287 141.614C36.9414 153.876 41.8855 180.478 68.5398 185.694V172.792Z" fill="#0C3469"/>
<path d="M68.5398 184.091C68.5138 184.091 68.4877 184.091 68.4617 184.082C62.4595 182.99 57.5849 179.698 53.9506 174.282C43.1778 158.225 46.5692 128.244 47.6881 123.01C47.7402 122.776 47.9657 122.629 48.1999 122.672C48.4341 122.724 48.5815 122.95 48.5382 123.184C47.4366 128.365 44.0712 157.983 54.6792 173.797C58.1747 179.004 62.8672 182.176 68.6265 183.224C68.8607 183.268 69.0168 183.493 68.9735 183.727C68.9301 183.944 68.7479 184.091 68.5398 184.091Z" fill="white"/>
<path d="M68.5398 224.029C59.9441 225.19 45.9707 225.172 37.9302 218.829C29.881 212.487 31.555 207.028 34.6515 204.749C37.748 202.47 40.4369 199.861 35.1112 194.81C29.7856 189.749 21.2246 181.621 18.4577 169.43C15.6908 157.238 17.0525 149.612 22.4996 147.073C27.7819 144.613 29.1784 148.521 32.4137 156.605C35.649 164.681 42.9263 157.758 49.154 160.279C55.3817 162.801 55.1302 167.792 55.5292 172.081C55.9195 176.37 57.9752 177.557 61.4967 177.557C65.0182 177.557 68.5398 179.585 68.5398 183.658V224.029Z" fill="#1F4D7F"/>
<path d="M68.5397 209.878C68.505 209.878 68.4617 209.87 68.427 209.861C68.054 209.757 59.1634 207.175 46.2136 195.295C32.4223 182.644 25.917 163.667 25.8477 163.477C25.7696 163.251 25.891 163 26.1165 162.931C26.3421 162.853 26.5936 162.974 26.663 163.199C26.7237 163.39 33.1683 182.159 46.7947 194.654C59.5624 206.378 68.5658 209.003 68.6525 209.029C68.8867 209.099 69.0168 209.332 68.9561 209.566C68.904 209.748 68.7306 209.878 68.5397 209.878Z" fill="white"/>
<path d="M49.8132 198.319C49.6397 198.319 49.4749 198.215 49.4055 198.042C46.6212 190.893 45.988 175.616 45.962 174.975C45.9534 174.733 46.1355 174.533 46.3784 174.525C46.6039 174.525 46.8207 174.698 46.8294 174.941C46.8381 175.097 47.4799 190.72 50.2122 197.73C50.2989 197.955 50.1861 198.206 49.9693 198.293C49.9259 198.31 49.8652 198.319 49.8132 198.319Z" fill="white"/>
<path d="M49.7438 208.596C48.3994 208.596 47.4626 208.492 47.3499 208.475C47.1157 208.449 46.9422 208.232 46.9682 207.989C46.9942 207.755 47.2111 207.573 47.4539 207.608C47.532 207.617 55.6073 208.527 59.3109 204.749C59.4757 204.575 59.7533 204.575 59.9268 204.74C60.1002 204.905 60.1002 205.182 59.9354 205.355C57.2206 208.128 52.5714 208.596 49.7438 208.596Z" fill="white"/>
<path d="M77.0921 235.631L158.642 188.588C159.475 188.112 159.475 187.332 158.642 186.855L151.096 182.497C150.264 182.02 148.919 182.02 148.095 182.497L66.5188 229.54C65.6861 230.016 65.6861 230.796 66.5188 231.273L74.0823 235.64C74.915 236.108 76.2594 236.108 77.0921 235.631Z" fill="#E0E0E0"/>
<path d="M156.387 6.99277L82.8688 49.4C80.7957 50.5958 79.113 53.5073 79.113 55.8988V230.129C79.113 232.52 80.7957 233.491 82.8688 232.295L156.396 189.888C158.469 188.692 160.152 185.781 160.152 183.389V9.15906C160.143 6.76748 158.469 5.79698 156.387 6.99277Z" fill="#455A64"/>
<path d="M82.8688 49.4L156.387 6.99277C158.243 5.92696 159.779 6.58551 160.082 8.44851C159.796 6.21291 158.261 3.73468 156.387 2.6602L153.325 0.892509C151.252 -0.303281 147.887 -0.303281 145.814 0.892509L72.2955 43.3084C71.2547 43.9063 70.3179 44.9374 69.6414 46.1072L80.2146 52.2075C80.8912 51.029 81.8279 49.9979 82.8688 49.4Z" fill="#37474F"/>
<path d="M68.5398 224.029C68.5398 226.42 70.2225 229.332 72.2955 230.527L75.3573 232.295C77.2309 233.378 80.1539 233.474 82.2269 232.598C80.4575 233.266 79.1044 232.269 79.1044 230.129V55.8988C79.1044 54.703 79.5207 53.3773 80.206 52.1988L69.6327 46.0985C68.9561 47.277 68.5311 48.6028 68.5311 49.7986L68.5398 224.029Z" fill="#263238"/>
<path d="M84.8898 72.6226L154.375 32.5463C155.624 31.8271 156.63 32.4076 156.63 33.846V162.766C156.63 164.204 155.624 165.946 154.375 166.665L84.8898 206.742C83.6494 207.461 82.6346 206.88 82.6346 205.442V76.5132C82.6346 75.0835 83.6407 73.3418 84.8898 72.6226Z" fill="white"/>
<path d="M119.628 34.8079C118.899 35.2325 118.31 36.255 118.31 37.0955C118.31 37.936 118.899 38.2826 119.628 37.858C120.357 37.4334 120.946 36.4109 120.946 35.5704C120.946 34.7299 120.357 34.3833 119.628 34.8079Z" fill="#37474F"/>
<path d="M119.628 192.895C116.748 194.558 114.415 198.596 114.415 201.924C114.415 205.243 116.748 206.594 119.628 204.931C122.508 203.267 124.841 199.229 124.841 195.902C124.85 192.583 122.508 191.24 119.628 192.895Z" fill="#37474F"/>
<path d="M107.147 48.2215C105.689 49.062 104.501 51.107 104.501 52.7967C104.501 54.4777 105.681 55.1623 107.147 54.3218C108.604 53.4812 109.792 51.4363 109.792 49.7466C109.792 48.0569 108.612 47.3723 107.147 48.2215Z" fill="#37474F"/>
<path d="M113.608 47.6496C113.608 48.7674 114.45 49.2007 115.491 48.6028L132.873 38.5772C133.914 37.9793 134.755 36.5842 134.755 35.4578C134.755 34.3313 133.914 33.9067 132.873 34.5046L115.491 44.5302C114.45 45.1281 113.608 46.5231 113.608 47.6496Z" fill="#37474F"/>
<path d="M74.3859 78.2029C75.5568 78.8788 76.5022 80.5165 76.5022 81.8596C76.5022 83.2027 75.5568 83.7486 74.3859 83.0814C73.2149 82.4055 72.2695 80.7678 72.2695 79.4247C72.2781 78.0729 73.2236 77.527 74.3859 78.2029Z" fill="#37474F"/>
<path d="M74.3859 94.4674C75.5568 95.1432 76.5022 96.7809 76.5022 98.124C76.5022 99.4671 75.5568 100.013 74.3859 99.3458C73.2149 98.67 72.2695 97.0322 72.2695 95.6891C72.2781 94.346 73.2236 93.8001 74.3859 94.4674Z" fill="#37474F"/>
<path d="M73.7353 78.5235C74.9063 79.1994 75.8517 80.8371 75.8517 82.1802C75.8517 83.5233 74.9063 84.0692 73.7353 83.402C72.5644 82.7261 71.619 81.0884 71.619 79.7453C71.619 78.4022 72.5644 77.8563 73.7353 78.5235Z" fill="#455A64"/>
<path d="M73.7353 94.7967C74.9063 95.4725 75.8517 97.1102 75.8517 98.4533C75.8517 99.7964 74.9063 100.342 73.7353 99.6751C72.5644 98.9992 71.619 97.3615 71.619 96.0184C71.619 94.6753 72.5644 94.1208 73.7353 94.7967Z" fill="#455A64"/>
<path d="M170.716 37.9187C170.716 36.4802 169.71 35.8997 168.461 36.6189L160.143 41.4194L98.9759 76.6952C97.7269 77.4144 96.7207 79.1561 96.7207 80.5945V209.514C96.7207 210.953 97.7269 211.533 98.9759 210.814L160.16 175.521L168.452 170.738C169.693 170.019 170.708 168.277 170.708 166.839L170.716 37.9187Z" fill="white" stroke="#9BBFD5" stroke-miterlimit="10"/>
<path d="M97.9784 211.559C97.6922 211.559 97.4146 211.49 97.1718 211.351C96.608 211.022 96.2957 210.372 96.2957 209.514V80.5945C96.2957 79.0001 97.3799 77.1198 98.7677 76.3226L159.935 41.0468L160.369 41.8006L99.2014 77.0764C98.0999 77.709 97.1631 79.3294 97.1631 80.6031V209.523C97.1631 210.052 97.3279 210.442 97.6054 210.606C97.8917 210.771 98.308 210.71 98.7677 210.45L159.952 175.157L160.386 175.911L99.2014 211.204C98.7764 211.438 98.3601 211.559 97.9784 211.559Z" fill="#9BBFD5" stroke="#9BBFD5" stroke-miterlimit="10"/>
<path d="M160.386 175.902L159.952 175.149L168.244 170.365C169.346 169.724 170.283 168.112 170.283 166.839V37.91C170.283 37.3814 170.118 36.9915 169.84 36.8268C169.563 36.6622 169.138 36.7229 168.678 36.9828L160.36 41.7833L159.926 41.0294L168.244 36.229C168.982 35.8044 169.701 35.7437 170.274 36.073C170.838 36.4023 171.15 37.0521 171.15 37.9013V166.83C171.15 168.424 170.066 170.305 168.678 171.102L160.386 175.902Z" fill="#9BBFD5" stroke="#9BBFD5" stroke-miterlimit="10"/>
<path d="M133.723 67.8827C141.503 63.3942 147.818 67.0335 147.818 76.0106C147.818 84.9877 141.512 95.9058 133.723 100.394C125.943 104.883 119.628 101.244 119.628 92.2664C119.628 83.2893 125.943 72.3713 133.723 67.8827Z" fill="#27DEBF"/>
<path d="M133.723 74.9448C136.247 73.489 138.294 74.6675 138.294 77.579C138.294 80.4905 136.247 84.0345 133.723 85.4903C131.199 86.946 129.152 85.7676 129.152 82.8561C129.152 79.9446 131.199 76.4005 133.723 74.9448Z" fill="#27DEBF"/>
<path d="M142.631 90.4814C142.631 85.6982 139.265 83.7572 135.119 86.1488L132.526 87.6479C128.38 90.0395 125.014 95.8625 125.014 100.646V101.937C127.408 102.734 130.436 102.301 133.723 100.403C137.106 98.4533 140.202 95.2906 142.631 91.5992V90.4814Z" fill="#27DEBF"/>
<path opacity="0.7" d="M133.723 74.9448C136.247 73.489 138.294 74.6675 138.294 77.579C138.294 80.4905 136.247 84.0345 133.723 85.4903C131.199 86.946 129.152 85.7676 129.152 82.8561C129.152 79.9446 131.199 76.4005 133.723 74.9448Z" fill="white"/>
<path opacity="0.7" d="M142.631 90.4814C142.631 85.6982 139.265 83.7572 135.119 86.1488L132.526 87.6479C128.38 90.0395 125.014 95.8625 125.014 100.646V101.937C127.408 102.734 130.435 102.301 133.723 100.403C137.106 98.4533 140.202 95.2906 142.631 91.5992V90.4814Z" fill="white"/>
<path d="M106.453 110.194L124.589 99.7354C125.422 99.2588 126.09 99.6487 126.09 100.602V101.2C126.09 102.162 125.413 103.323 124.589 103.799L106.453 114.258C105.62 114.735 104.952 114.345 104.952 113.392V112.794C104.952 111.841 105.629 110.679 106.453 110.194Z" fill="#9BBFD5"/>
<path opacity="0.1" d="M106.453 110.194L124.589 99.7354C125.422 99.2588 126.09 99.6487 126.09 100.602V101.2C126.09 102.162 125.413 103.323 124.589 103.799L106.453 114.258C105.62 114.735 104.952 114.345 104.952 113.392V112.794C104.952 111.841 105.629 110.679 106.453 110.194Z" fill="black"/>
<path d="M105.707 122.828L160.577 91.1829C160.993 90.9402 161.331 91.1395 161.331 91.6161V98.011C161.331 98.4876 160.993 99.0681 160.577 99.3108L105.707 130.956C105.29 131.198 104.952 130.999 104.952 130.523V124.128C104.952 123.642 105.29 123.062 105.707 122.828Z" fill="#9BBFD5"/>
<path opacity="0.2" d="M105.707 122.828L160.577 91.1829C160.993 90.9402 161.331 91.1395 161.331 91.6161V98.011C161.331 98.4876 160.993 99.0681 160.577 99.3108L105.707 130.956C105.29 131.198 104.952 130.999 104.952 130.523V124.128C104.952 123.642 105.29 123.062 105.707 122.828Z" fill="white"/>
<path d="M106.453 138.651L124.589 128.192C125.422 127.715 126.09 128.105 126.09 129.058V129.656C126.09 130.609 125.413 131.779 124.589 132.256L106.453 142.714C105.62 143.191 104.952 142.801 104.952 141.848V141.25C104.952 140.288 105.629 139.127 106.453 138.651Z" fill="#9BBFD5"/>
<path opacity="0.1" d="M106.453 138.651L124.589 128.192C125.422 127.715 126.09 128.105 126.09 129.058V129.656C126.09 130.609 125.413 131.779 124.589 132.256L106.453 142.714C105.62 143.191 104.952 142.801 104.952 141.848V141.25C104.952 140.288 105.629 139.127 106.453 138.651Z" fill="black"/>
<path d="M105.707 151.276L160.577 119.631C160.993 119.388 161.331 119.587 161.331 120.064V126.459C161.331 126.935 160.993 127.516 160.577 127.758L105.707 159.404C105.29 159.646 104.952 159.447 104.952 158.97V152.575C104.952 152.099 105.29 151.51 105.707 151.276Z" fill="#9BBFD5"/>
<path opacity="0.2" d="M105.707 151.276L160.577 119.631C160.993 119.388 161.331 119.587 161.331 120.064V126.459C161.331 126.935 160.993 127.516 160.577 127.758L105.707 159.404C105.29 159.646 104.952 159.447 104.952 158.97V152.575C104.952 152.099 105.29 151.51 105.707 151.276Z" fill="white"/>
<path d="M127.591 154.906L149.249 142.411C150.082 141.935 150.749 142.325 150.749 143.278V149.976C150.749 150.929 150.073 152.099 149.249 152.575L127.591 165.071C126.758 165.547 126.09 165.157 126.09 164.204V157.506C126.09 156.544 126.767 155.383 127.591 154.906Z" fill="#9BBFD5"/>
<path opacity="0.1" d="M127.591 154.906L149.249 142.411C150.082 141.935 150.749 142.325 150.749 143.278V149.976C150.749 150.929 150.073 152.099 149.249 152.575L127.591 165.071C126.758 165.547 126.09 165.157 126.09 164.204V157.506C126.09 156.544 126.767 155.383 127.591 154.906Z" fill="black"/>
<path d="M178.939 136.675C178.939 136.675 168.279 121.988 167.637 120.246C167.143 118.929 167.672 116.971 167.793 116.061C167.915 115.151 168.088 113.123 168.244 112.56C168.513 111.572 167.229 111.78 166.518 112.673C165.781 113.591 165.547 115.376 165.182 115.671C164.818 115.966 161.973 111.832 160.481 109.917C158.998 108.002 158.07 106.85 157.168 107.56C156.517 108.072 157.003 109.189 158.079 110.81C159.154 112.439 159.631 113.193 159.796 113.539C159.961 113.886 159.076 113.921 158.599 114.648C158.226 115.22 158.573 116.148 158.079 116.589C157.584 117.031 157.125 117.829 157.662 118.73C158.356 119.874 159.735 121.503 161.331 122.612C162.927 123.712 163.569 124.102 164.506 125.601C165.443 127.1 173.934 142.412 174.507 143.33C175.079 144.249 176.181 146.12 177.855 146.172C179.529 146.224 193.233 134.44 193.936 133.85C196.191 131.97 196.902 131.693 197.293 133.391C197.414 133.92 197.492 134.526 197.579 135.211C197.848 137.36 199.314 145.037 199.314 145.037C199.314 145.037 206.244 148.391 211.951 146.735C217.659 145.08 219.575 142.698 219.575 142.698L216.722 138.053C217.502 136.138 221.085 128.374 222.212 122.941L204.344 120.056C203.98 119.978 203.39 119.83 202.644 119.631C201.664 119.371 199.201 118.504 197.293 120.16C191.152 125.515 178.939 136.675 178.939 136.675Z" fill="#FFA8A7"/>
<path d="M214.362 226.741L211.162 231.186C211.162 231.186 212.645 232.052 215.811 232.174C218.673 232.286 219.463 231.342 219.567 231.117C220.052 230.077 219.298 228.205 219.09 226.602L214.362 226.741Z" fill="#37474F"/>
<path d="M211.344 229.046C211.344 229.046 207.467 228.794 204.778 228.465C202.098 228.127 199.973 229.436 200.606 230.536C201.239 231.637 202.714 232.555 205.012 233.326C206.981 233.985 209.349 234.47 211.405 235.085C213.512 235.718 214.866 236.437 216.054 236.03C217.39 235.571 217.953 235.042 217.841 234.071C217.728 233.101 216.765 229.982 216.765 229.982L211.344 229.046Z" fill="#37474F"/>
<path d="M219.575 222.27C219.575 222.27 219.09 226.308 219.055 227.174C219.02 228.041 215.108 228.318 214.371 226.732L214.25 221.793L219.575 222.27Z" fill="#F28F8F"/>
<path d="M215.638 224.756L217.034 230.883C217.034 230.883 217.164 231.628 213.972 232.104C210.78 232.581 205.767 230.432 204.917 229.999C204.067 229.566 203.963 228.699 207.103 228.872C210.242 229.046 211.353 229.054 211.353 229.054L210.338 226.342L215.638 224.756Z" fill="#FFA8A7"/>
<path d="M222.212 122.95L224.424 122.343C224.424 122.343 229.047 136.961 229.559 138.365C230.071 139.769 230.643 141.276 229.654 143.018C228.466 145.089 222.212 153.434 222.212 153.434L218.24 149.552L222.741 141.311L218.76 133.244L222.212 122.95Z" fill="#F28F8F"/>
<path d="M199.47 103.956C199.47 103.956 197.7 101.122 199.565 97.6561C201.76 93.5749 206.678 91.5732 212.524 92.3444C215.23 92.6997 218.413 94.918 220.165 98.2974C222.091 102.015 222.264 109.501 222.741 112.335L199.47 103.956Z" fill="#37474F"/>
<path d="M199.34 105.55C199.34 105.55 197.952 108.193 198.195 108.436C198.438 108.678 199.366 108.869 199.366 108.869L199.34 105.55Z" fill="#FFA8A7"/>
<path d="M203.555 97.1969C202.046 98.1847 199.444 99.9784 199.331 105.923C199.218 112.023 200.077 113.981 200.979 114.692C201.586 115.168 205.151 114.926 206.678 114.571C208.204 114.215 212.61 112.04 214.189 108.739C216.054 104.857 215.672 99.1726 212.905 97.5175C209.002 95.1953 204.839 96.365 203.555 97.1969Z" fill="#FFA8A7"/>
<path d="M219.575 142.715C222.247 146.874 224.797 150.539 225.335 155.21C226.48 165.08 222.724 176.362 221.926 183.658C221.926 183.658 224.45 186.933 224.45 190.789C224.45 193.805 219.575 222.27 219.575 222.27C219.575 222.27 216.036 223.344 214.241 221.802L210.893 169.438L212.654 163.061L219.575 142.715Z" fill="#9BBFD5"/>
<path d="M219.575 142.715C222.247 146.874 224.797 150.539 225.335 155.21C226.48 165.08 222.724 176.362 221.926 183.658C221.926 183.658 224.45 186.933 224.45 190.789C224.45 193.805 219.575 222.27 219.575 222.27C219.575 222.27 216.036 223.344 214.241 221.802L210.893 169.438L212.654 163.061L219.575 142.715Z" fill="#1F4D7F"/>
<path d="M210.902 169.429L212.662 163.052C212.662 163.052 217.546 161.873 222.212 159.265C222.212 159.265 220.408 162.549 215.221 164.343L212.524 172.54L212.289 191.292L210.902 169.429Z" fill="#9BBFD5"/>
<path d="M210.902 169.429L212.662 163.052C212.662 163.052 217.546 161.873 222.212 159.265C222.212 159.265 220.408 162.549 215.221 164.343L212.524 172.54L212.289 191.292L210.902 169.429Z" fill="#1B4870"/>
<path d="M219.575 142.715C221.007 145.046 224.424 149.04 223.704 152.87C222.819 157.515 220.321 160.782 212.662 163.052L205.481 189.03C205.481 189.03 209.219 192.522 210.364 195.85C211.509 199.177 215.638 224.756 215.638 224.756C215.638 224.756 214.362 226.836 210.329 226.333C210.329 226.333 196.269 194.255 195.272 192.184C194.283 190.122 193.632 188.571 194.083 185.209C194.534 181.847 199.322 145.046 199.322 145.046L219.575 142.715Z" fill="#9BBFD5"/>
<path d="M219.575 142.715C221.007 145.046 224.424 149.04 223.704 152.87C222.819 157.515 220.321 160.782 212.662 163.052L205.481 189.03C205.481 189.03 209.219 192.522 210.364 195.85C211.509 199.177 215.638 224.756 215.638 224.756C215.638 224.756 214.362 226.836 210.329 226.333C210.329 226.333 196.269 194.255 195.272 192.184C194.283 190.122 193.632 188.571 194.083 185.209C194.534 181.847 199.322 145.046 199.322 145.046L219.575 142.715Z" fill="#0C3469"/>
<path d="M222.212 122.95L204.344 120.064C203.98 119.986 203.39 119.839 202.644 119.64C202.644 119.64 201.881 130.835 197.301 133.4C197.405 133.937 197.501 134.535 197.588 135.22C197.856 137.368 199.322 145.046 199.322 145.046C199.322 145.046 206.253 148.399 211.96 146.744C217.667 145.089 219.584 142.706 219.584 142.706L216.73 138.062C217.494 136.147 221.085 128.391 222.212 122.95Z" fill="#9BBFD5"/>
<path opacity="0.7" d="M222.212 122.95L204.344 120.064C203.98 119.986 203.39 119.839 202.644 119.64C202.644 119.64 201.881 130.835 197.301 133.4C197.405 133.937 197.501 134.535 197.588 135.22C197.856 137.368 199.322 145.046 199.322 145.046C199.322 145.046 206.253 148.399 211.96 146.744C217.667 145.089 219.584 142.706 219.584 142.706L216.73 138.062C217.494 136.147 221.085 128.391 222.212 122.95Z" fill="white"/>
<path d="M217.502 136.242C217.433 136.407 211.76 139.448 210.078 139.907C212.732 139.777 214.944 139.153 216.73 138.07L217.502 136.242Z" fill="#9BBFD5"/>
<path d="M203.113 97.5002C203.113 97.5002 202.28 103.133 204.301 106.443C204.301 106.443 205.056 104.198 206.964 104.632C208.881 105.065 208.967 107.552 207.632 108.964C206.296 110.377 204.813 109.865 204.813 109.865C204.813 109.865 204.509 113.938 204.353 117.352C204.197 120.645 203.277 128.209 207.129 131.251C210.971 134.292 220.616 135.324 225.135 129.007C227.651 125.497 224.311 119.293 222.759 112.335C221.328 105.94 220.53 96.4603 213.729 94.9353C206.929 93.4102 203.113 97.5002 203.113 97.5002Z" fill="#37474F"/>
</svg>
